# AST/ASF file generated using VICON BodyLanguage
# -----------------------------------------------
:version 1.10
:name VICON
:units
  mass 1.0
  length 0.45
  angle deg
:documentation
   .ast/.asf automatically generated from VICON data using
   VICON BodyBuilder and BodyLanguage model FoxedUp or BRILLIANT.MOD
:root
   order TX TY TZ RX RY RZ
   axis XYZ
   position 0 0 0  
   orientation 0 0 0 
:bonedata
  begin
     id 1 
     name lhipjoint
     direction 0.54267 -0.795011 0.271047 
     length 2.39899 
     axis 0 0 0  XYZ
  end
  begin
     id 2 
     name lfemur
     direction 0.34202 -0.939693 0  
     length 7.49701  
     axis 0 0 20  XYZ
    dof rx ry rz
    limits (-160.0 20.0)
           (-70.0 70.0)
           (-60.0 70.0)
  end
  begin
     id 3 
     name ltibia
     direction 0.34202 -0.939693 0   
     length 8.1668   
     axis 0 0 20   XYZ
    dof rx
    limits (-10.0 170.0)
  end
  begin
     id 4 
     name lfoot
     direction 0.0736283 -0.202292 0.976554   
     length 2.13544   
     axis -90 7.62852e-016 20   XYZ
    dof rx rz
    limits (-45.0 90.0)
           (-70.0 20.0)
  end
  begin
     id 5 
     name ltoes
     direction 1.53557e-011 -4.22024e-011 1   
     length 1.07411   
     axis -90 7.62852e-016 20   XYZ
    dof rx
    limits (-90.0 20.0)
  end
  begin
     id 6 
     name rhipjoint
     direction -0.538061 -0.797813 0.272002   
     length 2.39057  
     axis 0 0 0  XYZ 
  end
  begin
     id 7 
     name rfemur
     direction -0.34202 -0.939693 0   
     length 7.50152   
     axis 0 0 -20   XYZ
    dof rx ry rz
    limits (-160.0 20.0)
           (-70.0 70.0)
           (-70.0 60.0)
  end
  begin
     id 8 
     name rtibia
     direction -0.34202 -0.939693 0   
     length 8.05793   
     axis 0 0 -20   XYZ
    dof rx
    limits (-10.0 170.0)
 end
 begin
     id 9 
     name rfoot
     direction -0.0765195 -0.210236 0.974652   
     length 2.28698  
     axis -90 -7.62852e-016 -20   XYZ
    dof rx rz
    limits (-45.0 90.0)
           (-20.0 70.0)
  end
  begin
     id 10 
     name rtoes
     direction -1.53542e-011 -4.21847e-011 1   
     length 1.14762   
     axis -90 -7.62852e-016 -20   XYZ
    dof rx
    limits (-90.0 20.0)
  end
  begin
     id 11 
     name lowerback
     direction -0.0217239 0.996592 -0.0795765   
     length 2.08176   
     axis 0 0 0   XYZ
    dof rx ry rz
    limits (-20.0 45.0)
           (-30.0 30.0)
           (-30.0 30.0)
  end
  begin
     id 12 
     name upperback
     direction -0.00563773 0.999651 -0.0258155   
     length 2.08898   
     axis 0 0 0   XYZ
    dof rx ry rz
    limits (-20.0 45.0)
           (-30.0 30.0)
           (-30.0 30.0)
  end
  begin
     id 13 
     name thorax
     direction 0.0032706 0.999923 0.0119599   
     length 2.0968   
     axis 0 0 0   XYZ
    dof rx ry rz
    limits (-20.0 45.0)
           (-30.0 30.0)
           (-30.0 30.0)
  end
  begin
     id 14 
     name lowerneck
     direction -0.0285886 0.99568 0.0883427   
     length 1.81272   
     axis 0 0 0   XYZ
    dof rx ry rz
    limits (-20.0 45.0)
           (-30.0 30.0)
           (-30.0 30.0)
  end
  begin
     id 15 
     name upperneck
     direction 0.0807535 0.97985 -0.18268   
     length 1.82518   
     axis 0 0 0   XYZ
    dof rx ry rz
    limits (-20.0 45.0)
           (-30.0 30.0)
           (-30.0 30.0)
  end
  begin
     id 16
     name head
     direction 0.0236605 0.997053 -0.0729767  
     length 1.84443  
     axis 0 0 0   XYZ
    dof rx ry rz
    limits (-20.0 45.0)
           (-30.0 30.0)
           (-30.0 30.0)
  end
  begin
     id 17 
     name lclavicle
     direction 0.918986 0.39378 -0.0200683  
     length 3.27822  
     axis 0 0 0   XYZ
    dof ry rz
    limits (-20.0 10.0)
           (0.0 20.0)
  end
  begin
     id 18 
     name lhumerus
     direction 1 -4.4897e-011 2.09544e-027   
     length 5.5568   
     axis 180 -30 -90   XYZ
    dof rx ry rz
    limits (-60.0 90.0)
           (-90.0 90.0)
           (-90.0 90.0)
  end
  begin
     id 19
     name lradius
     direction 1 -4.48957e-011 -1.27696e-026   
     length 3.63979   
     axis 180 -30 -90   XYZ
    dof rx
    limits (-10.0 170.0)
  end
  begin
     id 20
     name lwrist
     direction 1 -4.49001e-011 -1.49001e-026   
     length 1.8199   
     axis 9.0955e-015 90 90   XYZ
    dof ry
    limits (-180.0 0.0)
 end
  begin
     id 21 
     name lhand
     direction 1 -4.48709e-011 -2.9758e-026   
     length 0.569419   
     axis 1.90115e-014 90 90   XYZ
    dof rx rz
    limits (-90.0 90.0)
           (-45.0 45.0)
  end
  begin
     id 22 
     name lfingers
     direction 1 -4.49175e-011 -5.96505e-026   
     length 0.45908   
     axis 3.80223e-014 90 90   XYZ
    dof rx
    limits (0.0 90.0)
  end
  begin
     id 23
     name lthumb
     direction 0.707107 -6.34864e-011 0.707107   
     length 0.65915   
     axis -90 45 -3.84942e-014   XYZ
    dof rx rz
    limits (-45.0 45.0)
           (-45.0 45.0)
  end
  begin
     id 24 
     name rclavicle
     direction -0.911913 0.396426 -0.106115   
     length 3.46301  
     axis 0 0 0   XYZ 
    dof ry rz
    limits (-10.0 20.0)
           (-20.0 0.0)
  end
  begin
     id 25 
     name rhumerus
     direction -1 -4.48965e-011 7.78516e-028  
     length 5.34339   
     axis 180 30 90   XYZ
    dof rx ry rz
    limits (-90.0 60.0)
           (-90.0 90.0)
           (-90.0 90.0)
  end
  begin
     id 26 
     name rradius
     direction -1 -4.48948e-011 -5.79823e-027   
     length 3.65101   
     axis 180 30 90   XYZ
    dof rx
    limits (-10.0 170.0)
  end
  begin
     id 27 
     name rwrist
     direction -1 -4.48995e-011 -1.48996e-026   
     length 1.8255   
     axis 9.0955e-015 -90 -90   XYZ
    dof ry
    limits (-180.0 0.0)
  end
  begin
     id 28
     name rhand
     direction -1 -4.48957e-011 -2.97937e-026   
     length 0.694249   
     axis 1.90115e-014 -90 -90   XYZ
    dof rx rz
    limits (-90.0 90.0)
           (-45.0 45.0)
  end
  begin
     id 29
     name rfingers
     direction -1 -4.4898e-011 -5.95943e-026   
     length 0.559721   
     axis 3.80223e-014 -90 -90   XYZ
    dof rx
    limits (0.0 90.0)
  end
  begin
     id 30
     name rthumb
     direction -0.707107 -6.34969e-011 0.707107   
     length 0.803651   
     axis -90 -45 3.84942e-014   XYZ
    dof rx rz
    limits (-45.0 45.0)
           (-45.0 45.0)
  end
:hierarchy
  begin
    root lhipjoint rhipjoint lowerback
    lhipjoint lfemur
    lfemur ltibia
    ltibia lfoot
    lfoot ltoes
    rhipjoint rfemur
    rfemur rtibia
    rtibia rfoot
    rfoot rtoes
    lowerback upperback
    upperback thorax
    thorax lowerneck lclavicle rclavicle
    lowerneck upperneck
    upperneck head
    lclavicle lhumerus
    lhumerus lradius
    lradius lwrist
    lwrist lhand lthumb
    lhand lfingers
    rclavicle rhumerus
    rhumerus rradius
    rradius rwrist
    rwrist rhand rthumb
    rhand rfingers
  end

#!OML:ASF H:\Terrain\Walking\May29\JustinRory\rory.ASF
:FULLY-SPECIFIED
:DEGREES
299
root 10.3731 18.5774 1.91651 -172.62 -4.02334 180.275
lowerback -2.84384 2.69122 -0.797283
upperback 0.373151 3.6262 -0.826852
thorax 1.97863 1.80267 -0.238492
lowerneck -0.403472 -13.5681 -14.1152
upperneck 12.3879 -19.4788 8.40996
head 6.0149 -9.91452 3.42664
rclavicle 2.85753e-015 -9.74045e-015
rhumerus -18.1208 20.4404 -101.114
rradius 92.3948
rwrist -50.0476
rhand -16.425 26.4526
rfingers 7.12502
rthumb 9.79016 -3.29981
lclavicle 2.85753e-015 -9.74045e-015
lhumerus -40.4864 6.83818 66.7167
lradius 96.777
lwrist 65.4744
lhand 2.16046 30.6796
lfingers 7.12502
lthumb 27.658 58.6663
rfemur 2.41079 -7.31073 17.2007
rtibia 33.5564
rfoot -1.95437 -25.188
rtoes -9.12561
lfemur -20.9373 0.402326 -18.926
ltibia 27.4758
lfoot -12.8139 8.55082
ltoes -13.5399
300
root 10.3384 18.5699 1.87006 -172.659 -4.46409 180.165
lowerback -2.7278 2.51762 -0.961878
upperback 0.326557 3.39709 -0.81618
thorax 1.85555 1.68686 -0.153315
lowerneck -0.358294 -13.4917 -14.1622
upperneck 12.455 -19.3794 8.33316
head 6.01413 -9.87617 3.42317
rclavicle -1.19271e-015 4.37326e-015
rhumerus -18.1417 18.7477 -100.73
rradius 91.18
rwrist -50.8435
rhand -16.5408 26.4729
rfingers 7.12502
rthumb 9.67842 -3.28474
lclavicle -1.19271e-015 4.37326e-015
lhumerus -39.2891 7.92774 66.2786
lradius 94.0223
lwrist 65.8135
lhand 1.37644 30.1541
lfingers 7.12502
lthumb 26.9081 58.2587
rfemur 1.94426 -7.72893 16.8165
rtibia 34.6241
rfoot -0.485456 -24.5501
rtoes -8.25993
lfemur -20.7982 0.429281 -19.1468
ltibia 27.5898
lfoot -12.9972 7.92683
ltoes -12.9659
301
root 10.3056 18.5622 1.82632 -172.832 -4.89285 180.087
lowerback -2.4311 2.27205 -1.1563
upperback 0.34877 3.0703 -0.756309
thorax 1.69948 1.52245 -0.0101416
lowerneck -0.506288 -13.3783 -14.1703
upperneck 12.5568 -19.1971 8.2344
head 6.04091 -9.78955 3.40218
rclavicle -1.21507e-014 -7.35503e-015
rhumerus -18.0725 17.3343 -100.316
rradius 89.8298
rwrist -51.7235
rhand -16.1508 26.3953
rfingers 7.12502
rthumb 10.0547 -3.34446
lclavicle -1.21507e-014 -7.35503e-015
lhumerus -38.3617 9.00736 65.768
lradius 91.5425
lwrist 66.9838
lhand 1.16805 30.2605
lfingers 7.12502
lthumb 26.7087 58.3956
rfemur 1.49686 -8.12866 16.443
rtibia 35.8534
rfoot 0.931437 -24.1112
rtoes -8.91006
lfemur -20.5068 0.515661 -19.3164
ltibia 27.6649
lfoot -13.1982 7.40131
ltoes -12.599
302
root 10.2768 18.5512 1.78608 -172.992 -5.40554 180.117
lowerback -2.14251 2.07492 -1.18037
upperback 0.376333 2.80323 -0.724158
thorax 1.56508 1.38966 0.0151736
lowerneck -0.515756 -13.2854 -14.2853
upperneck 12.569 -19.0847 8.36841
head 6.05774 -9.73399 3.46935
rclavicle 1.62258e-014 -3.97569e-016
rhumerus -18.0165 15.8204 -99.7592
rradius 88.6529
rwrist -52.9031
rhand -16.0673 26.0776
rfingers 7.12502
rthumb 10.1352 -3.65825
lclavicle 1.62258e-014 -3.97569e-016
lhumerus -37.4071 9.75761 65.3653
lradius 89.2136
lwrist 68.4913
lhand -3.0803 28.1294
lfingers 7.12502
lthumb 22.6369 56.8219
rfemur 0.898133 -8.57338 16.2548
rtibia 37.233
rfoot 2.57138 -23.5814
rtoes -8.23868
lfemur -20.2327 0.621659 -19.3383
ltibia 27.6253
lfoot -13.2166 6.72317
ltoes -11.5476
303
root 10.2506 18.5412 1.74293 -173.161 -5.72158 179.915
lowerback -1.87979 1.95049 -1.45281
upperback 0.436127 2.63873 -0.797672
thorax 1.47163 1.30476 0.0777305
lowerneck -0.358437 -13.2303 -14.4025
upperneck 12.4143 -19.0589 8.69648
head 6.02318 -9.71535 3.60238
rclavicle -9.69075e-016 9.93923e-015
rhumerus -18.0144 14.4507 -99.1728
rradius 87.5023
rwrist -54.2956
rhand -15.9361 23.343
rfingers 7.12502
rthumb 10.2618 -6.38669
lclavicle -9.69075e-016 9.93923e-015
lhumerus -36.2196 10.5003 64.9706
lradius 86.6468
lwrist 69.9949
lhand -4.50528 27.5686
lfingers 7.12502
lthumb 21.2687 56.4216
rfemur 0.233074 -8.80892 15.8034
rtibia 38.6845
rfoot 4.26 -22.9554
rtoes -4.81351
lfemur -19.8549 0.846837 -19.6232
ltibia 27.568
lfoot -13.4567 5.90851
ltoes -9.76696
304
root 10.2178 18.539 1.69423 -173.271 -6.32196 179.476
lowerback -1.65502 1.67105 -1.93498
upperback 0.479436 2.26923 -0.904756
thorax 1.37985 1.1149 0.219701
lowerneck -0.240276 -13.199 -14.3663
upperneck 12.2428 -19.029 8.81368
head 5.95384 -9.69641 3.65052
rclavicle -1.54555e-014 -1.39149e-015
rhumerus -18.1691 13.367 -98.6054
rradius 86.282
rwrist -55.8394
rhand -15.6884 22.0974
rfingers 7.12502
rthumb 10.5007 -7.62027
lclavicle -1.54555e-014 -1.39149e-015
lhumerus -35.2338 11.2178 64.4786
lradius 84.1079
lwrist 71.858
lhand -20.4807 29.0702
lfingers 7.12502
lthumb 5.87575 58.9687
rfemur -0.453355 -9.22154 15.1198
rtibia 40.1892
rfoot 5.20805 -22.9315
rtoes 0.415383
lfemur -19.542 0.892597 -20.1848
ltibia 27.5385
lfoot -13.5547 5.34948
ltoes -10.5071
305
root 10.1821 18.5344 1.64199 -173.099 -7.47551 179.202
lowerback -1.7284 1.24714 -2.11205
upperback 0.429667 1.70717 -0.987885
thorax 1.3771 0.831961 0.219688
lowerneck 0.0449796 -13.2661 -14.3393
upperneck 11.9626 -19.1418 8.91132
head 5.83887 -9.75215 3.6927
rclavicle 7.77745e-015 -2.78299e-015
rhumerus -18.546 12.2883 -97.9823
rradius 85.0923
rwrist -57.3456
rhand -15.847 21.0913
rfingers 7.12502
rthumb 10.3477 -8.63416
lclavicle 7.77745e-015 -2.78299e-015
lhumerus -34.341 11.7945 63.9997
lradius 81.6664
lwrist 73.7618
lhand -14.6575 25.4538
lfingers 7.12502
lthumb 11.4951 55.1186
rfemur -1.40062 -10.1194 14.7689
rtibia 41.7656
rfoot 5.83002 -23.1128
rtoes 3.06372
lfemur -19.5863 0.522101 -20.5206
ltibia 27.4558
lfoot -13.5144 4.76744
ltoes -9.2642
